<svg width="20" height="20" viewBox="0 0 20 20" fill="none" xmlns="http://www.w3.org/2000/svg">
<path d="M17.9548 6.61656C17.7204 6.38222 17.4025 6.25057 17.0711 6.25057C16.7396 6.25057 16.4217 6.38222 16.1873 6.61656L9.99982 12.8041L3.81232 6.61656C3.57656 6.38886 3.26081 6.26286 2.93306 6.26571C2.60532 6.26856 2.2918 6.40002 2.06004 6.63178C1.82828 6.86354 1.69682 7.17706 1.69397 7.5048C1.69113 7.83255 1.81712 8.1483 2.04482 8.38406L9.11607 15.4553C9.35048 15.6896 9.66836 15.8213 9.99982 15.8213C10.3313 15.8213 10.6492 15.6896 10.8836 15.4553L17.9548 8.38406C18.1892 8.14965 18.3208 7.83176 18.3208 7.50031C18.3208 7.16885 18.1892 6.85097 17.9548 6.61656Z" fill="black"/>
</svg>
