<svg width="29" height="26" viewBox="0 0 29 26" fill="none" xmlns="http://www.w3.org/2000/svg">
<path d="M11.0082 0.799996L6.6082 19.3L5.8082 15C7.4082 15 8.7082 15.5 9.7082 16.5C10.7082 17.4333 11.2082 18.7 11.2082 20.3C11.2082 21.9 10.7082 23.2 9.7082 24.2C8.7082 25.2 7.47487 25.7 6.0082 25.7C4.4082 25.7 3.1082 25.2 2.1082 24.2C1.17487 23.1333 0.708203 21.8333 0.708203 20.3C0.708203 19.7 0.741537 19.1667 0.808203 18.7C0.87487 18.2333 1.0082 17.6667 1.2082 17C1.4082 16.3333 1.67487 15.5333 2.0082 14.6L6.2082 0.799996H11.0082ZM28.0082 0.799996L23.6082 19.3L22.8082 15C24.4082 15 25.7082 15.5 26.7082 16.5C27.7082 17.4333 28.2082 18.7 28.2082 20.3C28.2082 21.9 27.7082 23.2 26.7082 24.2C25.7082 25.2 24.4749 25.7 23.0082 25.7C21.4082 25.7 20.1082 25.2 19.1082 24.2C18.1749 23.1333 17.7082 21.8333 17.7082 20.3C17.7082 19.7 17.7415 19.1667 17.8082 18.7C17.8749 18.2333 18.0082 17.6667 18.2082 17C18.4082 16.3333 18.6749 15.5333 19.0082 14.6L23.2082 0.799996H28.0082Z" fill="#074CE5"/>
</svg>
